<svg width="1050" height="594" viewBox="0 0 1050 594" fill="none" xmlns="http://www.w3.org/2000/svg">
<g filter="url(#filter0_d_2001_9)">
<path fill-rule="evenodd" clip-rule="evenodd" d="M20.1948 1.31887C18.3678 2.01714 15.4694 3.57078 13.7586 4.77529C12.0478 5.97107 9.5813 8.62448 8.28575 10.6669C6.9902 12.7093 5.48702 15.7468 4.94721 17.4314C4.4157 19.1159 3.98385 22.6509 4.00046 25.2868C4.01707 27.9228 4.4157 31.4665 4.88908 33.1423C5.36245 34.8182 7.13138 38.1349 8.81725 40.5003C10.8021 43.2759 13.5759 45.746 16.6487 47.483L21.4157 50.1626L21.4406 181.524C16.5573 183.121 13.3932 185.478 11.0014 188C8.211 190.942 6.31751 193.909 5.38737 196.798C4.61502 199.199 3.99216 203.519 4.00046 206.4C4.00877 209.996 4.61502 213.007 5.93548 216.001C6.9902 218.401 9.31554 221.91 11.1177 223.804C12.9115 225.689 15.9677 227.95 17.911 228.823L21.4406 230.402V356.09C16.5573 357.688 13.3932 360.044 11.0014 362.567C8.211 365.508 6.31751 368.476 5.38737 371.365C4.61502 373.765 3.99216 378.086 4.00046 380.966C4.00877 384.562 4.61502 387.573 5.93548 390.567C6.9902 392.967 9.31554 396.476 11.1177 398.37C12.9115 400.256 15.9677 402.516 17.911 403.389L21.4406 404.969L21.4323 536.33C15.9677 538.626 12.9364 540.781 11.1758 542.614C9.4152 544.439 7.08155 547.895 5.99362 550.295C4.49875 553.603 4.01707 556.143 4.01707 560.769C4.01707 565.308 4.50706 568.005 5.93548 571.243C6.9902 573.644 9.31554 577.152 11.1177 579.046C12.9115 580.932 16.059 583.254 18.1186 584.214C20.7679 585.444 23.6663 585.942 28.0844 585.942C33.0922 585.933 35.1269 585.505 38.4654 583.725C40.7493 582.512 44.2207 579.605 46.1806 577.257C48.1405 574.909 50.1005 571.715 50.5406 570.152L51.3379 567.316L123.175 567.289C125.002 572.387 127.244 575.791 129.337 578.139C131.429 580.495 134.826 583.21 136.877 584.179C139.585 585.453 142.334 585.933 146.843 585.916C151.793 585.889 153.927 585.436 157.224 583.707C159.508 582.503 162.988 579.605 164.956 577.257C167.14 574.647 169 571.296 169.74 568.625C170.404 566.225 170.944 562.69 170.944 560.769C170.944 558.849 170.329 555.113 169.573 552.477C168.552 548.89 167.132 546.56 163.959 543.243C161.626 540.799 158.312 538.242 156.593 537.569L153.462 536.33L153.487 404.969C159.599 401.774 162.988 398.929 164.956 396.581C167.323 393.77 168.984 390.672 169.839 387.512C170.653 384.51 170.985 380.914 170.728 377.911C170.504 375.275 169.565 371.539 168.643 369.619C167.73 367.699 166.061 364.949 164.931 363.509C163.802 362.069 160.77 359.712 158.188 358.272L153.487 355.654C153.487 256.587 153.512 255.697 155.148 254.842C156.626 254.065 157.673 255.165 164.574 264.661C168.843 270.544 197.802 310.406 228.936 353.254L285.534 431.154C282.394 436.225 281.024 439.664 280.476 442.064C279.928 444.464 279.67 448.392 279.911 450.792C280.152 453.193 281.14 456.824 282.112 458.866C283.084 460.909 284.936 463.85 286.239 465.412C287.543 466.975 290.998 469.384 293.921 470.763C298.68 473.015 299.851 473.224 305.05 472.77C308.247 472.491 311.76 472.151 312.848 472.002C314.584 471.775 318.412 476.663 343.011 510.582C370.517 548.497 371.164 549.484 370.284 552.041C369.786 553.481 369.396 557.61 369.42 561.206C369.437 565.587 369.944 568.904 370.949 571.243C371.771 573.164 373.731 576.262 375.292 578.121C376.853 579.98 380.001 582.494 382.285 583.699C385.54 585.409 387.799 585.907 392.724 585.986C398.18 586.073 399.667 585.732 403.902 583.463C407.224 581.674 409.782 579.457 411.916 576.48C413.644 574.08 415.246 571.034 415.487 569.716L415.919 567.316H485.68C486.917 571.715 488.877 574.909 490.837 577.257C492.797 579.605 496.268 582.503 498.552 583.699C501.874 585.444 503.95 585.881 508.933 585.881C513.916 585.881 515.992 585.444 519.314 583.699C521.598 582.503 525.069 579.605 527.021 577.257C528.981 574.909 531.132 571.226 531.804 569.061C532.485 566.897 533.034 563.37 533.034 561.206C533.034 559.041 532.485 555.314 531.813 552.914C531.14 550.496 529.197 546.848 527.444 544.718C525.717 542.614 522.711 539.961 520.767 538.826L517.238 536.766L517.296 411.515C524.247 407.256 526.888 404.655 528.649 401.914C530.193 399.514 531.846 395.979 532.328 394.058C532.809 392.138 533.034 388.21 532.826 385.33C532.577 381.778 531.68 378.574 530.036 375.362C528.682 372.7 525.891 369.165 523.674 367.289C521.506 365.447 519.173 363.946 518.484 363.946C517.387 363.946 517.238 356.335 517.238 300.665V237.385C522.063 234.863 525.078 232.209 527.046 229.87C529.23 227.26 531.09 223.909 531.829 221.238C532.494 218.837 533.034 215.302 533.034 213.382C533.034 211.462 532.485 207.927 531.813 205.527C531.14 203.109 529.197 199.461 527.444 197.331C525.717 195.227 522.711 192.574 520.767 191.439L517.238 189.379C517.238 158.603 517.52 126.981 517.861 99.2506L518.484 48.8446C524.28 45.074 527.187 42.0365 528.69 39.6537C530.193 37.2708 531.821 33.7533 532.311 31.8331C532.801 29.9129 533.025 25.9851 532.818 23.1048C532.602 20.2244 531.763 16.4974 530.949 14.8129C530.135 13.137 528.449 10.3876 527.195 8.70303C525.95 7.0272 522.918 4.4698 520.46 3.02963C516.474 0.690435 515.228 0.411129 508.933 0.411129C502.621 0.411129 501.401 0.690435 497.456 3.02963C495.022 4.4698 491.991 7.0272 490.704 8.70303C489.425 10.3876 487.681 13.2418 486.817 15.0485L485.264 18.3391L415.919 18.3042C415.371 15.258 413.76 12.4126 411.974 10.0123C410.014 7.3676 406.958 4.64436 404.226 3.11691C401.436 1.53708 397.989 0.419857 395.157 0.166736C392.358 -0.0863854 388.82 0.271476 386.022 1.10067C382.991 2.00841 380.059 3.74535 377.302 6.29402C375.018 8.40627 372.311 11.8714 371.289 14.0011C369.819 17.0648 369.437 19.369 369.42 25.0686C369.42 29.555 369.886 33.4216 370.658 35.3244C371.339 37.009 373.681 40.3607 375.848 42.7871C378.049 45.2485 381.371 47.8496 383.348 48.6787L386.91 50.1626L386.902 189.816C381.504 192.521 378.631 194.677 377.036 196.362C375.441 198.047 373.266 201.381 372.194 203.781C370.733 207.08 370.259 209.69 370.251 214.473C370.243 218.261 370.766 222.119 371.546 224.074C372.261 225.872 374.129 229.015 375.699 231.057C377.484 233.379 380.25 235.578 383.115 236.949L387.683 239.131V337.761C382.932 338.625 382.052 338.363 381.338 337.167C380.815 336.294 352.13 296.79 317.598 249.387L254.806 163.194C257.746 156.587 258.634 152.598 258.834 149.229C259.058 145.519 258.709 142.046 257.837 139.191C257.106 136.791 255.246 133.256 253.701 131.336C252.157 129.416 248.876 126.675 246.41 125.244C242.581 123.018 241.036 122.643 235.705 122.625C232.275 122.616 228.82 122.8 228.014 123.044C226.877 123.384 219.959 114.211 196.755 81.5845L166.949 39.6886C170.13 33.4216 170.495 31.1872 170.495 25.2868C170.495 19.692 170.113 17.1171 168.934 14.8129C168.079 13.1283 166.36 10.3876 165.105 8.70303C163.86 7.01847 160.829 4.4698 158.37 3.02963C154.384 0.690435 153.138 0.411129 146.843 0.411129C140.548 0.411129 139.302 0.690435 135.316 3.02963C132.858 4.4698 129.818 7.01847 128.556 8.70303C127.294 10.3876 125.566 13.2418 124.719 15.0485L123.175 18.3391L51.3379 18.3042C48.4395 11.9674 45.7321 8.40627 43.4483 6.30275C40.8821 3.93737 37.7097 1.99096 35.1435 1.21413C32.8597 0.524597 29.3052 -0.0252871 27.2539 0.00089786C25.1943 0.0270828 22.0219 0.620609 20.1948 1.31887ZM51.3379 32.2695L123.175 32.2346L124.719 35.5252C125.566 37.3319 127.435 40.3519 131.479 45.6413L112.793 104.715L109.53 104.496C106.374 104.287 105.411 103.283 79.0095 72.7864C64.0193 55.4694 51.1469 40.5439 50.416 39.6187C49.2368 38.1524 49.2119 37.585 50.2084 35.1062L51.3379 32.2695ZM415.969 32.2695L485.256 32.2259L489.251 40.5614L451.206 108.171L445.393 108.162L429.747 73.4934C414.416 39.514 414.117 38.7459 415.03 35.5426L415.969 32.2695ZM36.4474 48.8708C37.5519 48.4344 38.9056 48.1463 39.4537 48.2423C39.9935 48.3383 53.1899 63.1416 68.7614 81.1481C89.2826 104.863 96.9147 114.237 96.4662 115.189C96.1257 115.904 95.7852 119.439 95.5693 129.59L91.4169 133.518C89.1331 135.674 76.7506 147.955 40.5416 184.142L34.6867 181.087L34.4293 49.6738L36.4474 48.8708ZM401.56 49.0715C402.357 48.4693 403.321 47.9805 403.703 47.9805C404.093 47.9805 411.119 63.0019 434.231 114.752L432.811 117.807C432.03 119.483 431.225 122.625 431.017 124.79C430.81 126.946 430.851 129.695 431.117 130.9C431.383 132.095 432.487 134.452 435.535 139.191L405.538 191.884L400.555 189.685L400.339 119.919C400.132 54.5791 400.215 50.0927 401.56 49.0715ZM155.082 49.3246C155.298 49.0279 155.954 48.9057 156.535 49.0366C157.125 49.1763 170.553 67.5494 186.391 89.8764C202.22 112.195 215.333 130.856 215.516 131.336C215.707 131.816 215.184 133.134 212.866 136.32L129.852 121.735L129.179 117.807C128.805 115.642 127.701 112.701 124.927 108.642L143.231 51.0354L148.961 50.4419C152.108 50.1189 154.866 49.6127 155.082 49.3246ZM483.844 77.072C499.582 49.1501 499.681 49.0017 504.365 50.2848L504.822 188.07L499.382 190.069L481.319 162.662C465.939 139.331 463.373 135.002 464.087 133.518C464.544 132.558 464.917 129.416 464.917 126.535C464.917 123.655 464.353 119.919 463.672 118.243C462.459 115.276 462.509 115.04 465.225 110.17C466.761 107.403 475.149 92.5124 483.844 77.072ZM125.433 136.355C125.176 135.726 125.583 135.264 126.364 135.264C127.119 135.264 145.772 138.406 167.813 142.246C189.846 146.087 208.631 149.404 209.545 149.613C210.699 149.884 211.38 151.001 211.803 153.323C212.127 155.147 212.501 157.277 212.634 158.053C212.775 158.926 204.246 168.108 190.028 182.388C177.463 195 165.994 206.548 161.883 210.764L157.473 208.346C154.766 206.871 151.785 205.946 146.428 205.981L136.155 171.713C130.499 152.86 125.674 136.948 125.433 136.355ZM77.0662 166.529C102.512 140.955 104.73 138.938 106.606 139.689C107.728 140.134 109.663 140.501 110.925 140.501C113.2 140.509 113.234 140.605 133.771 209.018L130.134 212.693C128.132 214.718 125.932 216.21 125.251 216.018C124.561 215.826 108.309 212.483 89.1248 208.59C69.9407 204.697 53.5885 201.337 52.7912 201.119C51.9857 200.901 51.1718 199.836 50.9642 198.762C50.7566 197.68 50.3579 196.205 50.0756 195.489C49.7101 194.564 57.6994 185.984 77.0662 166.529ZM449.603 144.743C450.94 144.446 452.319 144.149 452.668 144.088C453.008 144.036 461.064 155.871 470.573 170.395C480.082 184.91 488.105 197.191 488.395 197.671C488.686 198.151 488.204 200.115 485.721 205.527L470.955 206.173C462.833 206.53 447.544 207.115 417.763 208.145L415.089 201.599L431.125 173.45C445.368 148.452 447.436 145.24 449.603 144.743ZM195.734 195.707C210.159 181.183 221.969 169.287 221.977 169.278C221.985 169.269 223.306 169.819 227.815 171.766L247.863 230.978C258.883 263.544 267.77 290.383 267.603 290.628C267.437 290.863 245.704 277.457 171.342 230.586L169.507 222.11L195.734 195.707ZM242.697 171.713C243.187 171.364 243.835 171.163 244.126 171.277C244.425 171.39 273.492 211.156 308.729 259.642C343.974 308.128 372.601 347.894 372.352 348.017C372.103 348.13 355.036 338.311 334.416 326.196C313.795 314.072 296.836 303.764 296.72 303.284C296.612 302.804 296.106 300.735 295.591 298.702C295.084 296.659 293.456 293.587 291.97 291.876C290.251 289.895 287.61 288.166 280.135 285.504L260.968 228.927C248.228 191.352 242.099 172.141 242.697 171.713ZM49.4444 217.31C50.7316 214.962 51.1718 214.753 53.8044 215.25C55.4155 215.556 71.502 218.89 89.54 222.66C107.586 226.422 122.402 229.608 122.469 229.739C122.535 229.861 122.726 232.2 123.175 239.908L94.1077 283.444L89.54 282.999C87.032 282.746 84.7066 282.301 84.3827 282.004C84.0505 281.707 75.7374 267.611 48.016 219.928L49.4444 217.31ZM444.571 220.836C453.706 220.513 466.595 220.173 485.264 219.92L488.586 227.766L458.24 274.472L448.723 274.873L414.258 229.521L417.165 221.674L422.563 221.552C425.528 221.482 435.435 221.159 444.571 220.836ZM36.0404 229.591C36.9124 229.102 37.801 228.692 38.0004 228.674C38.1997 228.665 46.3301 242.596 73.7609 290.619L72.5152 293.238C71.8175 294.695 71.2694 298.187 71.2694 301.093C71.2694 303.973 71.6182 307.02 72.0418 307.858C72.6646 309.088 69.5836 313.889 56.2045 332.515C47.0692 345.241 39.3374 355.968 39.0302 356.37C38.7146 356.762 37.6266 356.867 34.7283 356.082L34.5871 293.281C34.4459 232.157 34.4874 230.455 36.0404 229.591ZM483.811 259.215C491.916 246.742 498.951 236.722 499.449 236.957C499.939 237.193 501.293 237.621 504.556 238.441L504.781 362.191L502.081 363.055C500.595 363.536 499.316 363.832 499.233 363.71C499.15 363.597 492.099 350.347 468.023 305.021L469.792 301.311C471.005 298.763 471.561 295.97 471.561 292.365C471.561 289.458 471.005 285.967 469.07 281.891L483.811 259.215ZM401.701 238.52C403.478 237.708 404.774 239.174 421.375 260.864C433.833 277.134 438.973 284.474 438.55 285.391C438.226 286.107 437.943 289.249 437.935 292.374C437.927 295.49 438.209 298.832 438.566 299.793C439.09 301.215 436.681 304.646 425.378 318.558C417.771 327.915 410.471 336.853 406.784 341.252L400.14 337.761L399.791 239.393L401.701 238.52ZM166.775 244.804C166.775 244.56 167.148 244.368 167.605 244.368C168.062 244.368 189.464 257.644 261.865 303.371L262.297 307.255C262.538 309.385 263.659 312.667 264.788 314.543C265.926 316.411 268.343 318.855 270.17 319.972C271.997 321.09 274.148 322.015 274.945 322.024C275.75 322.041 276.564 322.731 276.764 323.577C276.963 324.415 281.83 346.707 287.585 373.11C293.332 399.514 298.215 421.605 298.431 422.207C298.672 422.879 298.215 423.211 297.235 423.08C296.214 422.932 272.653 391.169 231.212 334.051C195.775 285.199 166.775 245.04 166.775 244.804ZM117.627 272.071C125.209 260.663 131.612 251.455 131.861 251.604C132.11 251.752 134.021 252.756 139.917 255.793L140.058 305.937C140.183 349.832 140.05 356.143 138.954 356.527C138.181 356.797 136.662 355.558 134.942 353.254C133.414 351.211 125.874 340.903 118.175 330.342C110.468 319.78 104.231 310.546 104.314 309.83C104.389 309.106 104.705 306.164 105.004 303.284C105.319 300.299 105.186 296.912 104.705 295.428C103.891 292.932 104.497 291.832 117.627 272.071ZM449.213 310.013L452.709 310.476C454.628 310.729 456.256 310.982 456.314 311.035C456.372 311.087 463.755 324.982 489.001 372.674L487.141 376.384C485.605 379.447 485.281 381.49 485.264 396.293L432.113 446.62L426.3 444.395L417.58 412.877C409.134 382.328 408.91 381.315 410.405 379.849C411.252 379.02 412.913 376.576 414.1 374.42C415.695 371.513 416.343 368.895 416.6 364.382C416.791 361.022 416.567 356.893 415.255 352.162L432.238 331.084L449.213 310.013ZM290.483 318.113C291.148 317.389 291.92 316.891 292.202 317.022C292.476 317.144 309.983 327.461 369.487 362.636L369.445 365.91C369.429 367.708 369.944 370.457 371.762 374.856L344.215 400.657C316.934 426.222 316.66 426.449 314.393 425.315C313.139 424.686 312.101 424.066 312.092 423.953C312.084 423.831 306.952 400.264 300.673 371.583C290.658 325.759 289.42 319.265 290.483 318.113ZM82.1238 318.969L93.6343 318.995L127.161 365.255L125.267 369.183C124.105 371.592 123.224 375.301 122.984 378.784C122.709 382.799 123 385.601 123.988 388.385C124.761 390.541 125.541 393.098 125.732 394.058C125.982 395.298 121.597 401.827 94.9381 437.621L83.1702 437.7L67.0506 414.404C55.3408 397.489 50.9891 390.558 51.1718 389.092C51.3047 387.984 51.4791 384.126 51.5455 380.53C51.6369 375.624 51.2548 372.988 48.3232 366.128L65.2235 342.544L82.1238 318.969ZM353.018 410.686C368.2 396.546 380.815 384.955 381.047 384.92C381.271 384.885 383.14 385.461 385.2 386.203C387.251 386.945 390.706 387.538 396.826 387.512L398.022 391.658C398.687 393.936 402.424 407.291 406.327 421.334C410.239 435.378 413.444 447.354 413.461 447.956C413.477 448.558 412.821 449.675 412.008 450.443C410.646 451.735 407.216 451.569 369.42 448.383C346.806 446.472 328.229 444.866 328.137 444.796C328.046 444.735 327.39 442.815 325.405 436.391L353.018 410.686ZM37.6931 403.284C39.4952 402.333 41.1479 401.521 41.3804 401.486C41.6046 401.443 48.8298 411.541 57.4419 423.918C71.5269 444.185 72.9968 446.62 72.183 448.392C71.6847 449.475 71.2777 452.713 71.2777 455.593C71.2777 458.674 71.8258 462 73.9685 466.503L55.8059 501.94C41.397 530.046 37.336 537.325 36.1899 537.072C34.8196 536.784 34.72 532.856 34.4293 405.012L37.6931 403.284ZM120.401 425.646C133.298 408.024 136.578 404.052 139.784 404.532L140.199 536.766L138.331 537.168C137.301 537.395 136.213 537.299 135.897 536.95C135.59 536.609 128.066 520.418 103.027 465.631L104.273 462.576C105.186 460.35 105.394 457.854 104.555 447.301L120.401 425.646ZM467.168 431.808C481.203 418.48 492.979 407.587 493.337 407.587C493.694 407.587 495.571 408.565 497.514 409.752C499.457 410.948 501.699 411.934 502.497 411.934C503.751 411.943 503.983 412.981 504.158 419.589C504.274 423.787 504.274 451.674 503.95 535.894L500.836 536.845C498.153 537.665 497.53 537.578 496.335 536.19C495.571 535.309 482.864 520.357 441.249 471.383L441.656 456.029L467.168 431.808ZM324.973 460.411C325.347 458.421 325.679 458.281 328.918 458.674C330.861 458.91 347.213 460.28 365.26 461.712C383.298 463.134 400.215 464.505 402.839 464.749C406.344 465.072 407.614 465.543 407.614 466.503C407.614 467.219 408.221 469.087 408.96 470.649C409.69 472.203 411.003 474.272 411.858 475.232C413.386 476.943 413.253 477.492 395.572 535.859L391.212 535.876C388.812 535.885 385.341 536.574 383.489 537.421C380.507 538.774 380.001 538.8 379.029 537.639C378.431 536.915 365.932 519.729 351.25 499.453C329.184 468.956 324.633 462.2 324.973 460.411ZM84.9724 473.966L92.4467 473.923L126.081 547.24L123.175 554.267L51.7531 554.249L48.016 546.368L66.4942 510.163L84.9724 473.966ZM428.169 480.608C429.423 480.443 430.71 480.347 431.026 480.39C431.341 480.434 443.433 494.408 457.892 511.454C472.359 528.492 485.082 543.417 486.178 544.622C488.146 546.787 488.146 546.83 485.264 554.275L416.334 554.214L414.873 550.505C414.075 548.471 412.107 545.329 407.614 540.258L409.641 533.93C410.762 530.447 414.873 517.093 418.776 504.253C425.677 481.586 425.951 480.896 428.169 480.608ZM601.947 1.07448C600.344 1.70292 597.57 3.17801 595.776 4.36506C593.983 5.55211 591.666 7.69928 590.644 9.13945C589.614 10.5796 588.003 13.5211 587.073 15.6857C585.938 18.3042 585.359 21.5046 585.337 25.2868C585.312 29.8256 585.786 31.9989 587.729 36.1972C589.066 39.0776 591.408 42.5689 592.936 43.9567C594.464 45.3445 597.313 47.3084 599.264 48.3209L602.802 50.1626V133.954C597.313 136.809 594.464 138.772 592.936 140.16C591.408 141.548 589.066 145.039 587.729 147.92C585.811 152.066 585.304 154.335 585.304 158.83C585.304 163.325 585.811 165.586 587.729 169.741C589.066 172.621 591.408 176.112 592.936 177.5C594.464 178.888 597.313 180.852 599.264 181.864L602.802 183.706V276.226C597.313 279.08 594.464 281.044 592.936 282.432C591.408 283.82 589.066 287.311 587.729 290.191C585.811 294.337 585.304 296.607 585.304 301.102C585.304 305.597 585.811 307.858 587.729 312.012C589.066 314.893 591.408 318.384 592.936 319.772C594.464 321.16 597.363 323.123 599.364 324.136L603.018 325.978C602.188 354.388 601.947 372.36 601.947 384.239V405.842C594.863 409.9 591.898 412.353 590.794 413.915C589.681 415.478 588.003 418.515 587.073 420.68C585.985 423.194 585.362 426.484 585.346 429.845C585.329 432.725 585.869 436.845 586.55 439.009C587.222 441.165 589.232 444.7 591.009 446.865C592.787 449.021 595.976 451.674 598.093 452.756L601.947 454.72L601.997 536.33C596.615 539.036 593.41 541.785 591.4 544.186C589.299 546.691 587.181 550.4 586.425 552.914C585.537 555.864 585.238 559.12 585.512 562.951C585.744 566.146 586.658 570.144 587.613 572.116C588.543 574.036 591.117 577.406 593.343 579.605C595.56 581.796 598.874 584.135 600.701 584.79C602.528 585.444 606.639 585.968 609.836 585.951C614.346 585.924 616.58 585.418 619.802 583.716C622.086 582.512 625.557 579.596 627.517 577.257C629.477 574.909 631.437 571.715 631.877 570.152L632.675 567.316H694.13C695.011 571.715 696.696 574.857 698.44 577.135C700.525 579.867 703.232 582.093 706.38 583.672C710.333 585.654 712.226 586.055 717.384 585.994C722.317 585.942 724.476 585.47 727.765 583.716C730.049 582.503 733.196 579.98 734.757 578.121C736.319 576.253 738.279 573.164 739.101 571.243C740.131 568.834 740.612 565.579 740.629 560.769C740.654 554.843 740.305 553.062 738.362 549.021C736.867 545.914 734.616 543.077 731.917 540.895C729.633 539.044 727.109 537.36 726.311 537.151C724.941 536.784 724.858 533.31 724.841 479.814L724.817 422.862C730.323 420.977 733.728 418.62 735.953 416.403C738.171 414.195 740.695 410.913 741.559 409.115C742.423 407.317 743.129 405.248 743.129 404.532C743.129 403.38 748.709 403.223 788.39 403.223H833.651C836.757 408.975 838.717 411.69 840.013 412.964C841.308 414.238 844.049 416.193 846.108 417.311C848.558 418.637 851.697 419.44 855.244 419.65C859.18 419.877 861.871 419.484 865.209 418.201C868.448 416.953 870.99 415.085 873.954 411.794C876.338 409.141 878.688 405.466 879.427 403.223L880.723 399.295L938.707 384.649C941.921 387.704 944.728 389.528 947.012 390.663C950.234 392.269 952.559 392.732 957.393 392.732C962.168 392.732 964.585 392.26 967.774 390.698C970.058 389.581 973.139 387.233 974.625 385.47C976.112 383.715 978.147 380.608 979.151 378.566C980.638 375.554 980.962 373.538 980.862 367.873C980.788 364.033 980.621 360.079 980.48 359.084C980.289 357.67 983.844 354.065 996.633 342.718C1011.57 329.451 1013.23 328.212 1015.32 328.814C1016.57 329.172 1020.03 329.417 1023 329.364C1026.95 329.286 1029.5 328.675 1032.55 327.069C1034.84 325.864 1038.11 323.263 1039.82 321.282C1041.53 319.3 1043.55 316.211 1044.3 314.413C1045.15 312.396 1045.71 308.626 1045.75 304.593C1045.81 299.216 1045.42 297.183 1043.63 293.246C1042.43 290.602 1040 287.163 1038.24 285.6C1036.48 284.029 1033.83 282.17 1032.34 281.454L1029.64 280.154C1029.64 254.789 1029.89 232.104 1030.19 213.382L1030.74 179.342C1037.44 175.126 1040.17 172.394 1041.86 169.741C1043.45 167.244 1045.02 163.317 1045.53 160.576C1046.02 157.931 1046.15 154.003 1045.81 151.848C1045.48 149.683 1044.7 146.645 1044.07 145.083C1043.45 143.521 1041.48 140.579 1039.71 138.537C1037.93 136.494 1034.67 133.963 1032.44 132.916C1030.22 131.86 1026.62 130.777 1024.45 130.515L1020.51 130.027C993.693 87.0746 985.28 73.6156 984.508 72.4198C983.171 70.3337 983.204 70.0195 985.189 65.4371C986.784 61.7625 987.274 59.2051 987.265 54.5267C987.257 50.2673 986.742 47.2211 985.563 44.4892C984.633 42.3245 982.498 39.0427 980.804 37.1835C979.118 35.3244 975.871 32.8718 973.587 31.7371C970.564 30.2271 967.965 29.6597 964.037 29.651C961.047 29.6335 956.787 30.2969 954.486 31.1261C952.078 31.9989 948.905 34.1112 946.929 36.1623C945.052 38.1 943.183 40.4218 942.776 41.3208C942.079 42.8482 939.944 42.2198 911.417 32.156L880.806 21.3591C878.696 14.5597 876.77 10.8851 875.175 8.79905C873.381 6.46858 870.358 4.02465 867.286 2.4361C862.843 0.123094 861.63 -0.121299 856.074 0.149279C851.515 0.376216 848.758 1.03957 845.801 2.61939C843.575 3.80645 840.42 6.34639 838.792 8.26662C837.164 10.1868 835.096 13.5211 834.199 15.6857L832.571 19.6134C816.992 18.5922 801.918 18.2955 789.013 18.3042H765.552C763.866 13.9051 762.213 11.0597 760.785 9.13945C759.356 7.21922 756.2 4.4698 753.775 3.02963C749.822 0.681707 748.618 0.411129 742.298 0.419857C736.726 0.428586 734.541 0.82136 731.917 2.27899C730.09 3.29148 727.474 5.08951 726.104 6.27656C724.734 7.46361 722.491 10.6495 721.121 13.364L718.629 18.2955L632.675 18.3042C630.258 12.5522 628.298 9.55841 626.753 7.94367C625.217 6.32893 622.269 3.98974 620.217 2.75032C617.386 1.0483 615.06 0.428586 610.667 0.219106C607.279 0.0619961 603.641 0.419857 601.947 1.07448ZM632.641 32.2695H675.843C699.603 32.2695 719.053 32.5663 719.061 32.9241C719.078 33.282 708.199 42.2198 694.886 52.7811C677.844 66.3012 670.163 71.9048 668.917 71.7128C667.937 71.5557 664.465 71.3637 655.264 71.1105L643.139 54.3085C636.47 45.0652 631.047 37.3319 631.097 37.1224C631.138 36.913 631.512 35.7346 631.911 34.504L632.641 32.2695ZM765.028 33.3605C765.402 32.5139 773.134 32.2695 833.651 32.2695L834.166 34.2334C834.448 35.3157 835.993 38.1611 840.527 44.9256L834.183 69.3649C830.695 82.8065 827.09 96.8504 824.516 107.333L813.304 107.412L789.503 72.6816C776.414 53.5753 765.444 37.1574 765.12 36.1972C764.804 35.2371 764.763 33.9628 765.028 33.3605ZM877.592 37.7247C878.115 36.6511 878.813 35.7608 879.145 35.7608C879.469 35.7608 892.823 40.3345 908.81 45.9206C924.796 51.5067 938.358 56.508 938.948 57.0492C939.538 57.5816 940.019 59.0044 940.011 60.2001C939.994 61.4046 941.016 64.3461 944.545 71.1105L921.881 105.151C907.987 126.012 898.686 139.191 897.872 139.191C897.133 139.191 896.195 138.607 895.779 137.882C895.364 137.166 889.659 116.149 871.197 45.7984L873.921 42.7435C875.416 41.0677 877.069 38.807 877.592 37.7247ZM702.468 63.9097C715.374 53.715 726.345 45.3707 726.851 45.3882C727.35 45.3969 728.645 46.0864 731.685 48.4169L718.629 105.814L714.062 107.036C711.545 107.717 708.182 109.21 703.681 112.465L699.113 109.332C696.597 107.612 690.991 103.868 678.766 95.8291L678.999 82.4574L702.468 63.9097ZM618.789 48.6089C620.766 47.6313 621.663 47.5528 622.36 48.2947C622.875 48.8446 628.381 56.3597 634.601 65.0007C645.722 80.4586 645.896 80.7641 645.107 83.7666C644.667 85.4512 644.318 87.9998 644.343 89.44C644.36 90.8802 644.883 93.4376 646.61 98.1683L633.829 117.152C623.656 132.27 620.757 136.032 619.595 135.604C618.797 135.307 617.493 134.915 616.688 134.731C615.342 134.417 615.235 132.366 615.235 106.678C615.235 91.4388 615.442 72.4285 616.156 49.9182L618.789 48.6089ZM753.094 47.9979C753.775 47.5092 754.78 47.2124 755.32 47.3346C755.86 47.4481 766.482 62.4695 778.914 80.7117C791.355 98.9539 801.561 114.272 801.603 114.752C801.644 115.232 800.739 117.676 797.525 124.72L743.129 124.79L742.165 121.517C741.576 119.518 739.325 116.306 731.502 108.206L737.349 82.6756C740.562 68.6404 743.527 55.7749 743.943 54.0903C744.582 51.4718 745.197 50.887 748.269 49.9618C750.238 49.3596 752.405 48.478 753.094 47.9979ZM852.445 50.1189L858.981 50.7386L868.764 87.9824C874.145 108.468 879.436 128.569 882.5 140.064L873.929 146.253L859.163 139.235C844.738 132.375 844.389 132.148 844.431 129.59C844.456 128.15 844.04 125.601 843.509 123.917C842.977 122.241 841.3 119.099 839.788 116.934C838.277 114.778 836.94 112.474 836.824 111.819C836.707 111.165 839.714 98.9888 843.492 84.7616C847.279 70.5345 850.842 56.9183 851.415 54.5093L852.445 50.1189ZM954.968 78.8264L959.295 79.6294C962.118 80.1531 965.199 80.1094 968.189 79.4985C970.697 78.9835 972.815 78.6518 972.881 78.7653C972.956 78.8787 980.895 91.4388 1008.05 134.391L1004.68 138.1C1002.83 140.143 1001.15 142.499 1000.94 143.337C1000.74 144.175 1000.3 144.874 999.955 144.882C999.606 144.891 980.082 146.628 913.793 152.589L911.941 150.25C910.919 148.967 910.172 147.475 910.28 146.933C910.379 146.384 920.478 130.838 932.719 112.387L954.968 78.8264ZM666.301 106.556C667.671 106.102 668.884 105.701 669 105.657C669.116 105.622 675.278 109.655 696.198 123.69L695.916 129.259C695.725 133.082 696.123 136.329 698.748 144.428L665.67 209.891H655.704L629.344 174.541L631.113 169.959C632.085 167.436 633.057 163.212 633.273 160.576C633.547 157.285 633.189 154.187 630.59 145.712L656.875 106.897L660.338 107.132C662.248 107.272 664.931 107.01 666.301 106.556ZM743.536 137.673L753.501 138.214C758.983 138.511 771.033 138.755 797.102 138.755L798.406 142.028C799.12 143.826 800.922 146.872 802.4 148.793C803.887 150.713 807.134 153.366 809.617 154.693C813.404 156.718 815.165 157.102 820.563 157.093C825.845 157.085 827.788 156.666 831.359 154.789C833.759 153.523 837.031 151.036 841.532 146.034L867.726 158.394L867.693 164.067C867.668 168.789 868.116 170.683 870.375 175.353C871.87 178.443 874.403 182.082 875.997 183.435C877.6 184.797 880.49 186.586 885.955 188.943V197.671C885.955 202.472 886.204 209.341 887.043 219.492L882.558 221.805C880.05 223.097 876.504 225.986 874.511 228.351C872.501 230.743 870.375 234.479 869.619 236.949C868.656 240.1 868.423 243.006 869.279 253.532L863.291 258.028C860.002 260.498 853.765 265.255 841.532 274.681L839.805 272.403C838.85 271.146 836.234 268.938 833.992 267.498C830.213 265.071 829.324 264.879 822.016 264.879C815.023 264.879 813.703 265.132 810.389 267.157C808.338 268.406 805.24 271.155 803.521 273.267C801.794 275.371 800.017 278.373 798.763 282.772H743.12L742.323 279.936C741.883 278.373 739.923 275.196 737.963 272.866C735.845 270.352 732.631 267.786 725.68 264.443V230.184C725.68 211.34 725.963 186.962 726.926 156.089L730.248 154.579C732.075 153.75 735.181 151.324 737.141 149.185C739.109 147.047 741.351 143.582 742.124 141.487L743.536 137.673ZM692.478 186.106C701.231 168.702 708.738 154.466 709.154 154.466C709.561 154.466 710.648 154.859 711.562 155.339C713.181 156.185 713.223 157.084 713.223 186.979C713.223 203.894 712.949 228.421 711.977 265.202L709.071 266.616C706.347 267.934 706.081 267.925 704.827 266.45C704.088 265.586 697.693 258.202 690.626 250.041C680.037 237.813 677.886 234.889 678.418 233.457C678.766 232.497 679.082 230.036 679.115 228.002C679.148 225.96 678.584 222.817 676.557 217.746L692.478 186.106ZM956.139 162.374C976.236 160.541 993.892 158.987 995.379 158.935C997.804 158.839 998.128 159.118 998.56 161.667C998.867 163.491 998.643 164.844 997.937 165.472C997.331 165.996 976.743 179.455 907.556 224.293L899.317 220.365L899.251 188.506L903.478 186.106C905.803 184.779 909.001 181.934 910.595 179.778C912.181 177.614 914.108 173.581 914.881 170.814C915.977 166.869 916.641 165.769 917.937 165.743C918.85 165.726 936.041 164.216 956.139 162.374ZM958.157 207.56C981.643 192.303 1000.98 180.005 1001.13 180.232C1001.28 180.459 990.247 198.815 951.837 261.388L947.759 261.903C945.517 262.182 942.627 263.169 939.006 265.752L915.18 253.532L916.035 250.478C916.5 248.793 916.691 245.258 916.458 242.622C916.226 239.977 915.902 237.254 915.736 236.565C915.545 235.718 929.439 226.222 958.157 207.56ZM1016.76 181.044L1017.02 222.521C1017.15 245.337 1017.06 267.637 1016.81 272.08C1016.39 279.403 1016.2 280.154 1014.69 280.154C1013.77 280.154 1011.25 281.463 1005.14 285.984L967.766 276.523L963.588 267.498L990.18 224.266L1016.76 181.044ZM616.472 182.999C617.385 182.781 618.465 182.554 618.88 182.501C619.287 182.44 625.549 190.645 645.954 219.056L644.982 223.202C644.26 226.256 644.243 228.386 644.908 231.275C645.406 233.44 646.054 235.989 646.344 236.949C646.751 238.275 643.728 243.451 633.871 258.333C626.72 269.139 620.815 278.059 620.749 278.173C620.674 278.277 619.404 277.884 615.21 276.226L615.01 229.809C614.828 184.09 614.844 183.392 616.472 182.999ZM658.22 245.677L669.208 245.241L680.967 258.988C687.445 266.546 693.815 273.913 695.127 275.353C697.137 277.553 697.436 278.461 696.514 284.082L666.459 288.332C649.924 290.663 635.465 292.758 634.327 292.976C632.583 293.316 632.085 292.915 631.246 290.479C630.25 287.608 630.358 287.398 639.51 273.608C644.6 265.927 650.895 256.5 653.495 252.66L658.22 245.677ZM876.67 264.783L881.52 267.253C885.556 269.305 887.433 269.715 892.607 269.697C897.573 269.671 899.691 269.217 907.29 265.228L933.284 277.972L933.425 282.336C933.5 284.736 933.575 287.093 933.591 287.573C933.608 288.053 918.51 307.037 900.032 329.757C871.671 364.644 866.189 370.981 864.786 370.492C863.872 370.169 861.256 369.706 854.82 368.999L834.49 311.139L836.325 309.83C837.338 309.114 839.024 307.543 840.079 306.339C841.125 305.143 842.712 302.586 843.6 300.665C844.489 298.745 845.51 295.036 846.515 287.651L861.589 276.217L876.67 264.783ZM962.691 292.504C964.61 290.331 965.515 289.912 967.259 290.366C968.455 290.68 975.78 292.548 997.663 298.082L998.128 305.047C998.444 309.778 999.199 313.278 1000.48 315.94C1002.02 319.169 1002.16 320.051 1001.26 320.889C1000.65 321.448 993.992 327.287 986.451 333.868C978.919 340.458 972.375 346.018 971.918 346.236C971.461 346.445 969.501 345.808 967.558 344.813C964.851 343.417 962.442 343.006 957.177 343.015C951.787 343.024 949.528 343.443 946.588 344.97C944.537 346.035 941.639 348.191 940.152 349.753C938.674 351.325 936.639 354.275 935.643 356.308C934.555 358.543 933.649 362.436 932.885 372.168L908.386 378.365C894.916 381.769 882.957 384.815 881.811 385.138C880.075 385.627 879.485 385.26 876.637 380.093L943.457 297.61H949.171C952.319 297.61 956.114 297.069 957.592 296.415C959.079 295.751 961.371 293.988 962.691 292.504ZM743.494 295.594L760.959 296.17C770.559 296.485 782.9 296.729 798.347 296.694L799.435 299.112C800.507 301.512 800.399 301.669 790.715 311.689C785.325 317.267 769.513 333.606 755.578 347.99C733.238 371.068 729.982 374.114 725.68 373.547V314.194L729.974 312.23C732.689 310.991 735.605 308.661 737.905 305.902C739.906 303.502 741.983 300.203 742.522 298.571L743.494 295.594ZM664.931 302.28C682.13 299.81 696.539 297.75 696.954 297.698C697.369 297.645 697.801 298.492 697.926 299.574C698.05 300.657 699.802 303.502 701.829 305.902C703.847 308.303 707.061 311.052 712.451 313.758L712.368 373.11L703.672 378.042L701.181 376.052C699.811 374.952 683.085 360.978 629.344 315.94L631.113 311.794C632.085 309.516 633.057 307.447 633.273 307.212C633.489 306.967 647.731 304.75 664.931 302.28ZM774.587 347.606C798.746 322.469 809.517 311.803 810.389 312.187C811.079 312.484 813.969 313.356 822.016 315.504L831.982 343.652C837.463 359.136 841.931 372.29 841.914 372.892C841.898 373.494 840.594 375.458 839.008 377.256C837.43 379.054 835.603 381.804 834.955 383.366C834.299 384.929 833.601 386.788 833.402 387.512C833.103 388.568 830.479 388.944 819.84 389.467C812.59 389.834 792.36 390.122 743.12 390.131L740.023 383.584L774.587 347.606ZM616.489 325.262C617.394 325.044 618.324 324.825 618.557 324.773C618.781 324.721 636.345 339.245 696.206 389.38L695.924 393.901C695.766 396.38 695.575 398.492 695.509 398.58C695.434 398.676 680.535 402.603 629.411 415.87L626.263 412.545C624.536 410.721 621.364 408.364 615.301 405.397L615.068 365.534C614.836 326.327 614.861 325.655 616.489 325.262ZM693.715 413.252C695.999 412.624 698.241 412.082 698.698 412.056C699.155 412.03 701.306 413.758 703.473 415.905C705.641 418.044 708.556 420.287 709.959 420.889C711.471 421.544 712.31 422.425 712.035 423.071C711.778 423.674 711.579 449.204 711.595 535.448L704.096 539.376L698.391 531.739C695.251 527.541 678.841 505.449 631.18 441.183L632.351 437.255C632.999 435.099 633.464 432.288 633.239 428.719L661.401 421.561C676.889 417.625 691.431 413.88 693.715 413.252ZM618.349 453.708C620.06 452.914 621.746 452.224 622.086 452.18C622.426 452.137 638.654 473.6 658.137 499.881C677.629 526.162 693.881 548.157 694.263 548.759C694.645 549.361 694.77 550.836 694.13 554.214H632.675L631.504 550.941C630.856 549.143 628.896 545.957 627.144 543.871C625.358 541.75 622.028 539.149 615.235 535.885L615.243 455.148L618.349 453.708Z" fill="url(#paint0_linear_2001_9)" fill-opacity="0.85" shape-rendering="crispEdges"/>
</g>
<defs>
<filter id="filter0_d_2001_9" x="0" y="0" width="1050" height="594" filterUnits="userSpaceOnUse" color-interpolation-filters="sRGB">
<feFlood flood-opacity="0" result="BackgroundImageFix"/>
<feColorMatrix in="SourceAlpha" type="matrix" values="0 0 0 0 0 0 0 0 0 0 0 0 0 0 0 0 0 0 127 0" result="hardAlpha"/>
<feOffset dy="4"/>
<feGaussianBlur stdDeviation="2"/>
<feComposite in2="hardAlpha" operator="out"/>
<feColorMatrix type="matrix" values="0 0 0 0 0 0 0 0 0 0 0 0 0 0 0 0 0 0 0.25 0"/>
<feBlend mode="normal" in2="BackgroundImageFix" result="effect1_dropShadow_2001_9"/>
<feBlend mode="normal" in="SourceGraphic" in2="effect1_dropShadow_2001_9" result="shape"/>
</filter>
<linearGradient id="paint0_linear_2001_9" x1="4" y1="0" x2="1053.96" y2="571.379" gradientUnits="userSpaceOnUse">
<stop stop-color="#00D0FF"/>
<stop offset="0.370192" stop-color="#407CFF"/>
<stop offset="1" stop-color="#8000FF" stop-opacity="0.91"/>
</linearGradient>
</defs>
</svg>
